<?xml version="1.0" encoding="utf-8"?>
<!-- Generator: Adobe Illustrator 19.1.0, SVG Export Plug-In . SVG Version: 6.00 Build 0)  -->
<svg version="1.1" id="Calque_1" xmlns="http://www.w3.org/2000/svg" xmlns:xlink="http://www.w3.org/1999/xlink" x="0px" y="0px"
	 viewBox="0 0 455.8 92" style="enable-background:new 0 0 455.8 92;" xml:space="preserve">
<style type="text/css">
	.st0{fill:#E7A381;}
	.st1{fill:#FFFFFF;}
	.st2{fill:#E06D3C;}
</style>
<g id="Group">
	<polygon id="Shape" class="st0" points="58.2,50.1 32.2,50.1 12.4,74.6 38.4,74.6 	"/>
	<path id="Shape_1_" class="st1" d="M17.9,46c0,15.5,12.6,28.1,28.1,28.1S74.1,61.6,74.1,46S61.5,17.9,46,17.9S17.9,30.5,17.9,46z
		 M92,46c0,25.4-20.6,46-46,46S0,71.4,0,46S20.6,0,46,0S92,20.6,92,46z"/>
	<polygon id="Shape_2_" class="st2" points="33.2,50.1 59.2,50.1 94.3,89.9 68.4,89.9 	"/>
	<path id="Shape_4_" class="st1" d="M442.5,76.9l-6-16.5H412l-6,16.5h-13.4l24.8-64H431l24.8,64H442.5L442.5,76.9z M424.2,26.7
		l-8.2,22.4h16.3L424.2,26.7L424.2,26.7z M367.9,76.9h-12.5V24.1h-19.7V12.9h51.9v11.2h-19.7V76.9L367.9,76.9z M275.4,32.4v44.5
		h-12.6v-64h13.7l29.1,44.6V13h12.6v64h-13.6L275.4,32.4L275.4,32.4z M226.5,60.4H202l-6,16.5h-13.4l24.8-64H221l24.8,64h-13.4
		L226.5,60.4L226.5,60.4z M214.2,26.7l-8.2,22.4h16.3L214.2,26.7L214.2,26.7z M143.2,78.2h-0.8c-15.9,0-25.8-9.6-25.8-26.9V12.9
		h12.6v38c0,10.7,4.9,16,13.4,16h0.6c8.4,0,13.3-5.3,13.3-16v-38h12.6v38.4C169.1,68.6,159.2,78.2,143.2,78.2L143.2,78.2z"/>
</g>
</svg>
