<?xml version="1.0" encoding="utf-8"?>
<!-- Generator: Adobe Illustrator 19.1.0, SVG Export Plug-In . SVG Version: 6.00 Build 0)  -->
<svg version="1.1" id="Calque_1" xmlns="http://www.w3.org/2000/svg" xmlns:xlink="http://www.w3.org/1999/xlink" x="0px" y="0px"
	 viewBox="203 -47 456 144" style="enable-background:new 203 -47 456 144;" xml:space="preserve">
<style type="text/css">
	.st0{fill:#E7A281;}
	.st1{fill:#FFFFFF;}
	.st2{fill:#E06D3E;}
</style>
<title>Logo</title>
<desc>Created with Sketch.</desc>
<g id="Main">
	<g id="Logo">
		<g id="Group">
			<polygon id="Shape" class="st0" points="261.2,3.1 235.2,3.1 215.4,27.6 241.4,27.6 			"/>
			<path id="Shape_1_" class="st1" d="M220.9-1c0,15.5,12.6,28.1,28.1,28.1S277.1,14.6,277.1-1S264.5-29.1,249-29.1
				S220.9-16.5,220.9-1z M295-1c0,25.4-20.6,46-46,46s-46-20.6-46-46s20.6-46,46-46S295-26.4,295-1z"/>
			<polygon id="Shape_2_" class="st2" points="236.2,3.1 262.2,3.1 297.3,42.9 271.4,42.9 			"/>
			<path id="Shape_3_" class="st1" d="M495,84.9h-1.4c-0.2,0-0.2,0.1-0.2,0.2v10.2c0,0.3-0.2,0.4-0.4,0.4h-3.6
				c-0.3,0-0.4-0.2-0.4-0.4V68c0-0.2,0.2-0.4,0.4-0.4h5.7c5,0,8,2.2,8,8.7C503,82.5,500,84.9,495,84.9L495,84.9z M495,71.6h-1.4
				c-0.2,0-0.2,0.1-0.2,0.2v8.8c0,0.2,0.1,0.2,0.2,0.2h1.4c2.5,0,3.6-1.1,3.6-4.7C498.6,72.7,497.5,71.6,495,71.6L495,71.6z
				 M470.8,96.2c-4.4,0-7.1-2.5-7.1-7.6V68c0-0.2,0.2-0.4,0.4-0.4h3.6c0.3,0,0.4,0.2,0.4,0.4v21.2c0,1.8,1,2.9,2.6,2.9
				c1.7,0,2.6-1.2,2.6-2.9V68c0-0.2,0.2-0.4,0.4-0.4h3.6c0.2,0,0.4,0.2,0.4,0.4v20.7C477.9,93.7,475.2,96.2,470.8,96.2L470.8,96.2z
				 M446,96.2c-3.5,0-5.8-1.6-6.7-4.4c-0.4-1.2-0.5-2.2-0.5-10.1c0-7.9,0.1-8.9,0.5-10.1c0.9-2.8,3.2-4.4,6.7-4.4
				c3.5,0,5.7,1.6,6.7,4.4c0.4,1.2,0.5,2.2,0.5,10.1c0,7.9-0.1,8.9-0.5,10.1C451.8,94.6,449.5,96.2,446,96.2L446,96.2z M448.4,72.8
				c-0.3-1-1.2-1.6-2.4-1.6c-1.2,0-2.1,0.6-2.4,1.6c-0.3,0.8-0.3,1.1-0.3,8.9c0,7.8,0,8.1,0.3,8.9c0.3,1,1.2,1.6,2.4,1.6
				c1.2,0,2.1-0.6,2.4-1.6c0.3-0.8,0.3-1.1,0.3-8.9C448.7,73.9,448.6,73.6,448.4,72.8L448.4,72.8z M429.1,95.8h-3.9
				c-0.3,0-0.4-0.1-0.5-0.3l-3.5-11.3h-0.7h-1.4c-0.2,0-0.3,0.1-0.3,0.3v10.9c0,0.3-0.2,0.4-0.4,0.4h-3.6c-0.3,0-0.4-0.2-0.4-0.4V68
				c0-0.2,0.2-0.4,0.4-0.4h5.7c5,0,8.1,2.2,8.1,8.4c0,3.7-1.2,6-3.4,7.2l4,12.2C429.4,95.6,429.3,95.8,429.1,95.8L429.1,95.8z
				 M420.6,71.6h-1.5c-0.2,0-0.3,0.1-0.3,0.2v8.2c0,0.2,0.1,0.3,0.3,0.3h1.5c2.5,0,3.6-1,3.6-4.4C424.2,72.6,423.1,71.6,420.6,71.6
				L420.6,71.6z M396.8,96.2c-3.5,0-5.8-1.6-6.7-4.4c-0.4-1.2-0.5-2.2-0.5-10.1c0-7.9,0.1-8.9,0.5-10.1c0.9-2.8,3.2-4.4,6.7-4.4
				c4.1,0,6.6,2.2,7,6.6c0,0.2-0.1,0.5-0.3,0.5l-3.4,0.6c-0.3,0-0.4-0.1-0.5-0.3c-0.2-2.2-1.2-3.3-2.8-3.3c-1.2,0-2.2,0.6-2.5,1.6
				c-0.3,0.8-0.3,1.1-0.3,8.9c0,7.8,0,8.1,0.3,8.9c0.3,1,1.3,1.6,2.5,1.6c1.2,0,2.2-0.6,2.5-1.6c0.2-0.7,0.3-1.1,0.3-6.4
				c0-0.2-0.1-0.3-0.2-0.3h-2.2c-0.2,0-0.4-0.2-0.4-0.4v-3.1c0-0.2,0.2-0.4,0.4-0.4h6.3c0.3,0,0.4,0.2,0.4,0.4v1.2
				c0,7.8-0.1,8.8-0.5,10.1C402.6,94.6,400.3,96.2,396.8,96.2L396.8,96.2z"/>
			<path id="Shape_4_" class="st1" d="M645.5,29.9l-6-16.5H615l-6,16.5h-13.4l24.8-64H634l24.8,64H645.5L645.5,29.9z M627.2-20.3
				l-8.2,22.4h16.3L627.2-20.3L627.2-20.3z M570.9,29.9h-12.5v-52.7h-19.7v-11.2h51.9v11.2h-19.7V29.9L570.9,29.9z M478.4-14.6v44.5
				h-12.6v-64h13.7l29.1,44.6V-34h12.6v64h-13.6L478.4-14.6L478.4-14.6z M429.5,13.4H405l-6,16.5h-13.4l24.8-64H424l24.8,64h-13.4
				L429.5,13.4L429.5,13.4z M417.2-20.3l-8.2,22.4h16.3L417.2-20.3L417.2-20.3z M346.2,31.2h-0.8c-15.9,0-25.8-9.6-25.8-26.9v-38.4
				h12.6v38c0,10.7,4.9,16,13.4,16h0.6c8.4,0,13.3-5.3,13.3-16v-38h12.6V4.3C372.1,21.6,362.2,31.2,346.2,31.2L346.2,31.2z"/>
		</g>
	</g>
</g>
</svg>
